<svg width="25" height="25" viewBox="0 0 25 25" version="1.1" xmlns="http://www.w3.org/2000/svg"><g stroke="none" stroke-width="1" fill="none" fill-rule="evenodd"><path fill="#00933C" d="M.772 12.632l12-12 12 12-12 12z"/><path d="M12.756 12.533c-.4 0-.762.122-1.069.364-.46.358-.695.936-.695 1.72 0 .631.173 1.154.516 1.557.347.407.792.613 1.326.613.525 0 .944-.2 1.247-.598.297-.387.446-.895.446-1.51 0-.684-.17-1.218-.51-1.586a1.649 1.649 0 00-1.26-.56m.046 5.867c-1.382 0-2.415-.585-3.069-1.739-.515-.912-.777-2.109-.777-3.56 0-.858.037-1.563.11-2.095.126-.946.377-1.743.744-2.369.314-.532.73-.964 1.237-1.288.505-.32 1.12-.484 1.825-.484 1.023 0 1.847.265 2.45.785.577.496.916 1.161 1.01 1.977h-2.015a1.322 1.322 0 00-.22-.556c-.259-.384-.653-.577-1.17-.577-.766 0-1.318.432-1.64 1.283-.17.454-.288 1.131-.35 2.013l-.023.306.198-.235c.265-.313.576-.546.923-.69.35-.146.758-.22 1.212-.22.972 0 1.78.334 2.4.992.623.66.938 1.518.938 2.55 0 1.027-.31 1.948-.925 2.734-.606.78-1.568 1.173-2.858 1.173" fill="#FFF"/></g></svg>