<svg width="25" height="24" viewBox="0 0 25 24" version="1.1" xmlns="http://www.w3.org/2000/svg"><g stroke="none" stroke-width="1" fill="none" fill-rule="evenodd"><path d="M.827 12c0-6.627 5.372-12 12-12 6.627 0 12 5.373 12 12s-5.373 12-12 12c-6.628 0-12-5.373-12-12" fill="#808183"/><path d="M10.1 17.975c-1.485 0-2.668-.34-3.516-1.006-.814-.642-1.239-1.533-1.263-2.646h2.11c.08.5.231.883.447 1.144.418.495 1.134.746 2.127.746.589 0 1.074-.064 1.445-.192.728-.254 1.096-.735 1.096-1.431 0-.416-.185-.741-.55-.968-.345-.208-.893-.393-1.631-.551l-1.246-.274c-1.207-.266-2.043-.557-2.491-.867-.744-.51-1.121-1.32-1.121-2.41 0-.996.372-1.836 1.106-2.496.737-.662 1.841-.998 3.279-.998 1.201 0 2.239.318 3.084.945.813.604 1.257 1.485 1.319 2.62H12.18c-.067-.678-.395-1.171-.976-1.465-.398-.2-.896-.3-1.479-.3-.653 0-1.184.13-1.577.392a1.285 1.285 0 00-.613 1.13c0 .449.206.789.612 1.01.248.139.757.299 1.556.486l2.019.477c.866.203 1.524.477 1.954.816.657.52.991 1.285.991 2.274 0 1.016-.399 1.873-1.185 2.544-.791.677-1.929 1.02-3.382 1.02" fill="#FFF"/><path d="M17.424 7.15v1.74h1.457c.29 0 .506-.035.65-.105.256-.123.385-.366.385-.73 0-.392-.124-.656-.372-.79-.139-.077-.348-.115-.626-.115h-1.494zm2.798-.958c.238.103.44.254.606.453.137.164.245.346.325.545.081.2.121.426.121.681 0 .307-.079.61-.233.907-.156.298-.412.508-.769.631.298.12.51.291.634.512.125.221.188.56.188 1.013v.435c0 .296.012.497.035.602a.545.545 0 00.25.37v.162h-1.494a3.105 3.105 0 01-.145-.906l-.009-.602c-.005-.412-.077-.688-.214-.826-.137-.137-.394-.206-.77-.206h-1.323v2.54h-1.322V6.025H19.2c.444.01.784.064 1.023.167z" stroke="#FFF" stroke-width=".1"/><path d="M17.424 7.15v1.74h1.457c.29 0 .506-.035.65-.105.256-.123.385-.366.385-.73 0-.392-.124-.656-.372-.79-.139-.077-.348-.115-.626-.115h-1.494zm2.798-.958c.238.103.44.254.606.453.137.164.245.346.325.545.081.2.121.426.121.681 0 .307-.079.61-.233.907-.156.298-.412.508-.769.631.298.12.51.291.634.512.125.221.188.56.188 1.013v.435c0 .296.012.497.035.602a.545.545 0 00.25.37v.162h-1.494a3.105 3.105 0 01-.145-.906l-.009-.602c-.005-.412-.077-.688-.214-.826-.137-.137-.394-.206-.77-.206h-1.323v2.54h-1.322V6.025H19.2c.444.01.784.064 1.023.167z" fill="#FFF"/></g></svg>